<svg xmlns="http://www.w3.org/2000/svg" viewBox="0 0 1024 1024">
  <defs>
    <linearGradient id="bg" x1="0" y1="0" x2="1" y2="1">
      <stop offset="0" stop-color="#ebfcff"/>
      <stop offset="0.55" stop-color="#b0d6ff"/>
      <stop offset="1" stop-color="#e1efff"/>
    </linearGradient>
    <linearGradient id="pane-a" x1="0" y1="0" x2="1" y2="1">
      <stop offset="0" stop-color="#2eb8f2" stop-opacity=".78"/>
      <stop offset="1" stop-color="#295ce9" stop-opacity=".86"/>
    </linearGradient>
    <linearGradient id="pane-b" x1="0" y1="0" x2="1" y2="1">
      <stop offset="0" stop-color="#66c7f5" stop-opacity=".62"/>
      <stop offset="1" stop-color="#6d52eb" stop-opacity=".74"/>
    </linearGradient>
    <linearGradient id="glass" x1="0" y1="0" x2="1" y2="1">
      <stop offset="0" stop-color="#ffffff" stop-opacity=".88"/>
      <stop offset="1" stop-color="#bdeeff" stop-opacity=".66"/>
    </linearGradient>
    <filter id="soft-shadow" x="-20%" y="-20%" width="140%" height="140%">
      <feDropShadow dx="0" dy="18" stdDeviation="18" flood-color="#06264a" flood-opacity=".18"/>
    </filter>
  </defs>
  <rect width="1024" height="1024" fill="url(#bg)"/>
  <g filter="url(#soft-shadow)" stroke="white" stroke-opacity=".35" stroke-width="3">
    <rect x="130" y="154" width="560" height="700" rx="146" fill="url(#pane-a)" transform="rotate(-7 410 504)"/>
    <rect x="372" y="185" width="520" height="650" rx="144" fill="url(#pane-b)" transform="rotate(8 632 510)"/>
  </g>
  <rect x="228" y="134" width="568" height="700" rx="148" fill="url(#glass)" stroke="white" stroke-opacity=".64" stroke-width="5" filter="url(#soft-shadow)"/>
  <rect x="256" y="162" width="512" height="644" rx="122" fill="none" stroke="white" stroke-opacity=".20" stroke-width="3"/>
  <path d="M324 834h80L588 134h-72z" fill="#fff" opacity=".12"/>
  <g fill="#111822" opacity=".94">
    <rect x="342" y="378" width="340" height="62" rx="31"/>
    <rect x="384" y="486" width="256" height="58" rx="29"/>
    <rect x="430" y="584" width="164" height="54" rx="27" opacity=".66"/>
  </g>
</svg>